<mxfile host="Electron" agent="Mozilla/5.0 (Windows NT 10.0; Win64; x64) AppleWebKit/537.36 (KHTML, like Gecko) draw.io/24.7.17 Chrome/128.0.6613.36 Electron/32.0.1 Safari/537.36" version="24.7.17">
  <diagram name="Seite-1" id="UNef3Qii1UT9GNie3vts">
    <mxGraphModel dx="1098" dy="868" grid="1" gridSize="10" guides="1" tooltips="1" connect="1" arrows="1" fold="1" page="1" pageScale="1" pageWidth="1169" pageHeight="827" math="0" shadow="0">
      <root>
        <mxCell id="0" />
        <mxCell id="1" parent="0" />
        <mxCell id="aQFpdgkCh0J0lMaWyOth-14" style="edgeStyle=none;shape=connector;rounded=0;orthogonalLoop=1;jettySize=auto;html=1;strokeColor=default;align=center;verticalAlign=middle;fontFamily=Helvetica;fontSize=11;fontColor=default;labelBackgroundColor=default;endArrow=none;endFill=0;" edge="1" parent="1" source="aQFpdgkCh0J0lMaWyOth-1" target="aQFpdgkCh0J0lMaWyOth-9">
          <mxGeometry relative="1" as="geometry" />
        </mxCell>
        <mxCell id="aQFpdgkCh0J0lMaWyOth-15" style="edgeStyle=none;shape=connector;rounded=0;orthogonalLoop=1;jettySize=auto;html=1;strokeColor=default;align=center;verticalAlign=middle;fontFamily=Helvetica;fontSize=11;fontColor=default;labelBackgroundColor=default;endArrow=none;endFill=0;" edge="1" parent="1" source="aQFpdgkCh0J0lMaWyOth-1" target="aQFpdgkCh0J0lMaWyOth-6">
          <mxGeometry relative="1" as="geometry" />
        </mxCell>
        <mxCell id="aQFpdgkCh0J0lMaWyOth-16" style="edgeStyle=none;shape=connector;rounded=0;orthogonalLoop=1;jettySize=auto;html=1;strokeColor=default;align=center;verticalAlign=middle;fontFamily=Helvetica;fontSize=11;fontColor=default;labelBackgroundColor=default;endArrow=none;endFill=0;" edge="1" parent="1" source="aQFpdgkCh0J0lMaWyOth-1" target="aQFpdgkCh0J0lMaWyOth-5">
          <mxGeometry relative="1" as="geometry" />
        </mxCell>
        <mxCell id="aQFpdgkCh0J0lMaWyOth-17" style="edgeStyle=none;shape=connector;rounded=0;orthogonalLoop=1;jettySize=auto;html=1;strokeColor=default;align=center;verticalAlign=middle;fontFamily=Helvetica;fontSize=11;fontColor=default;labelBackgroundColor=default;endArrow=none;endFill=0;" edge="1" parent="1" source="aQFpdgkCh0J0lMaWyOth-1" target="aQFpdgkCh0J0lMaWyOth-7">
          <mxGeometry relative="1" as="geometry" />
        </mxCell>
        <mxCell id="aQFpdgkCh0J0lMaWyOth-1" value="Bridge" style="rounded=0;whiteSpace=wrap;html=1;" vertex="1" parent="1">
          <mxGeometry x="460" y="220" width="50" height="50" as="geometry" />
        </mxCell>
        <mxCell id="aQFpdgkCh0J0lMaWyOth-11" style="rounded=0;orthogonalLoop=1;jettySize=auto;html=1;endArrow=none;endFill=0;" edge="1" parent="1" source="aQFpdgkCh0J0lMaWyOth-2" target="aQFpdgkCh0J0lMaWyOth-1">
          <mxGeometry relative="1" as="geometry" />
        </mxCell>
        <mxCell id="aQFpdgkCh0J0lMaWyOth-2" value="Bestellposition" style="rounded=0;whiteSpace=wrap;html=1;" vertex="1" parent="1">
          <mxGeometry x="270" y="160" width="120" height="50" as="geometry" />
        </mxCell>
        <mxCell id="aQFpdgkCh0J0lMaWyOth-12" style="edgeStyle=none;shape=connector;rounded=0;orthogonalLoop=1;jettySize=auto;html=1;strokeColor=default;align=center;verticalAlign=middle;fontFamily=Helvetica;fontSize=11;fontColor=default;labelBackgroundColor=default;endArrow=none;endFill=0;" edge="1" parent="1" source="aQFpdgkCh0J0lMaWyOth-3" target="aQFpdgkCh0J0lMaWyOth-1">
          <mxGeometry relative="1" as="geometry" />
        </mxCell>
        <mxCell id="aQFpdgkCh0J0lMaWyOth-3" value="Bestellung" style="rounded=0;whiteSpace=wrap;html=1;" vertex="1" parent="1">
          <mxGeometry x="270" y="220" width="120" height="50" as="geometry" />
        </mxCell>
        <mxCell id="aQFpdgkCh0J0lMaWyOth-13" style="edgeStyle=none;shape=connector;rounded=0;orthogonalLoop=1;jettySize=auto;html=1;strokeColor=default;align=center;verticalAlign=middle;fontFamily=Helvetica;fontSize=11;fontColor=default;labelBackgroundColor=default;endArrow=none;endFill=0;" edge="1" parent="1" source="aQFpdgkCh0J0lMaWyOth-4" target="aQFpdgkCh0J0lMaWyOth-1">
          <mxGeometry relative="1" as="geometry" />
        </mxCell>
        <mxCell id="aQFpdgkCh0J0lMaWyOth-4" value="Lieferdienst" style="rounded=0;whiteSpace=wrap;html=1;" vertex="1" parent="1">
          <mxGeometry x="270" y="280" width="120" height="50" as="geometry" />
        </mxCell>
        <mxCell id="aQFpdgkCh0J0lMaWyOth-5" value="Lieferadresse" style="rounded=0;whiteSpace=wrap;html=1;" vertex="1" parent="1">
          <mxGeometry x="580" y="250" width="120" height="50" as="geometry" />
        </mxCell>
        <mxCell id="aQFpdgkCh0J0lMaWyOth-6" value="Kunde" style="rounded=0;whiteSpace=wrap;html=1;" vertex="1" parent="1">
          <mxGeometry x="580" y="190" width="120" height="50" as="geometry" />
        </mxCell>
        <mxCell id="aQFpdgkCh0J0lMaWyOth-7" value="Produkt" style="rounded=0;whiteSpace=wrap;html=1;verticalAlign=top;" vertex="1" parent="1">
          <mxGeometry x="580" y="310" width="130" height="80" as="geometry" />
        </mxCell>
        <mxCell id="aQFpdgkCh0J0lMaWyOth-9" value="Vereinspartner" style="rounded=0;whiteSpace=wrap;html=1;" vertex="1" parent="1">
          <mxGeometry x="580" y="130" width="120" height="50" as="geometry" />
        </mxCell>
        <mxCell id="aQFpdgkCh0J0lMaWyOth-10" value="Kategorie&lt;div&gt;hierarchie&lt;/div&gt;" style="rounded=0;whiteSpace=wrap;html=1;" vertex="1" parent="1">
          <mxGeometry x="620" y="340" width="90" height="50" as="geometry" />
        </mxCell>
      </root>
    </mxGraphModel>
  </diagram>
</mxfile>
